<?xml version="1.0" encoding="utf-8"?>
<!-- Svg Vector Icons : http://www.onlinewebfonts.com/icon -->
<!DOCTYPE svg PUBLIC "-//W3C//DTD SVG 1.1//EN" "http://www.w3.org/Graphics/SVG/1.1/DTD/svg11.dtd">
<svg version="1.1" xmlns="http://www.w3.org/2000/svg" xmlns:xlink="http://www.w3.org/1999/xlink" x="0px" y="0px" viewBox="0 0 1000 1000" enable-background="new 0 0 1000 1000" xml:space="preserve">
<metadata> Svg Vector Icons : http://www.onlinewebfonts.com/icon </metadata>
<g><path d="M886.4,459.2c-21.3,0-38.6,17.3-38.6,38.6v358.8c0,21.3-17.3,38.6-38.6,38.6H125.8c-21.3,0-38.6-17.3-38.6-38.6V195.9c0-21.3,17.3-38.6,38.6-38.6h420.8c21.3,0,38.6-17.3,38.6-38.6s-17.3-38.6-38.6-38.6H125.8C61.9,80.2,10,132.1,10,195.9v660.7c0,63.8,51.9,115.8,115.8,115.8h683.5c63.8,0,115.8-51.9,115.8-115.8V497.8C925,476.5,907.7,459.2,886.4,459.2z"/><path d="M978.7,184.6L832.6,38.5C818.1,24,792.5,24,778,38.5L301.3,515.2c-3.6,3.6-6.5,7.9-8.4,12.7l-94.2,230.3c-5.7,14.1-2.7,30.2,7.7,41.2c7.4,7.8,17.6,12,28,12c4.3,0,8.6-0.7,12.8-2.2L487.4,725c5.5-1.9,10.4-5,14.5-9.1l476.7-476.7c7.2-7.2,11.3-17,11.3-27.3C990,201.6,985.9,191.8,978.7,184.6z M356.7,575.6l84,84L302.6,708L356.7,575.6z M472.2,636.5L380.7,545l424.7-424.7l91.5,91.5L472.2,636.5z"/><path d="M790.5,196.8L556.9,430.4c-7.5,7.5-7.5,19.7,0,27.3c3.8,3.8,8.7,5.7,13.6,5.7c4.9,0,9.9-1.9,13.6-5.7l233.6-233.6c7.5-7.5,7.5-19.7,0-27.3C810.3,189.3,798.1,189.3,790.5,196.8z"/><path d="M506.7,480.7l-32.2,32.2c-7.5,7.5-7.5,19.7,0,27.3c3.8,3.8,8.7,5.7,13.6,5.7s9.9-1.9,13.6-5.7l32.2-32.2c7.5-7.5,7.5-19.7,0-27.3C526.4,473.1,514.2,473.1,506.7,480.7z"/></g>
</svg>