<?xml version="1.0" encoding="utf-8"?>
<!-- Generator: Adobe Illustrator 24.1.1, SVG Export Plug-In . SVG Version: 6.00 Build 0)  -->
<svg version="1.1" id="Layer_3" xmlns="http://www.w3.org/2000/svg" xmlns:xlink="http://www.w3.org/1999/xlink" x="0px" y="0px"
	 viewBox="0 0 379.01 378.62" style="enable-background:new 0 0 379.01 378.62;" xml:space="preserve">
<path d="M373.71,54.87c-0.06,8.32-5.11,19.73-14.64,29.26c-37.14,37.13-74.27,74.27-111.4,111.41
	c-54.86,54.87-109.76,109.71-164.52,164.68c-4.27,4.29-8.69,6.68-14.79,7.4c-19.91,2.37-39.75,5.35-59.63,8.04
	c-6.22,0.84-9.42-2.17-8.61-8.29c2.25-17.05,4.64-34.08,6.98-51.12c0.42-3.09,1.04-6.16,1.2-9.26c0.29-5.38,2.58-9.45,6.42-13.29
	c91.99-91.84,183.9-183.75,275.74-275.74c9.79-9.81,21.1-15.71,35.07-15.94C352.2,1.6,373.79,22.97,373.71,54.87z M293.92,33.94
	c-87.58,87.59-175.16,175.19-262.26,262.3c5.58,5.63,11.41,11.49,17.59,17.72c69.91-69.92,140.1-140.13,209.89-209.93
	c4.18,3.99,8.28,7.91,12.78,12.2c-70.2,70.21-140.39,140.41-210.08,210.11c6.08,6.11,12.1,12.16,17.47,17.55
	c87.24-87.25,174.8-174.82,262.22-262.26C325.9,65.96,309.86,49.9,293.92,33.94z M21.5,307.02c-2.46,17.99-4.95,36.15-7.51,54.87
	c18.71-2.57,36.86-5.06,54.84-7.53C52.97,338.49,37.33,322.85,21.5,307.02z M354.92,68.39c9.64-13.29,7.22-32.92-5.43-44.42
	c-11.83-10.75-31.71-12.09-41.98-3C323.25,36.72,339.01,52.48,354.92,68.39z"/>
<path d="M168.93,105.05c-8.54,8.53-16.82,16.8-25.01,24.98c-3.13-3.28-6.44-6.74-10.28-10.76c4.02-3.7,8.67-7.96,13.16-12.08
	c-4.88-4.89-9.18-9.2-13.7-13.74c-6.43,6.49-12.97,13.09-19.61,19.79c-3.63-3.89-6.84-7.33-10.12-10.84
	c6.16-6.12,12.74-12.66,19.14-19.03c-4.03-3.97-7.61-7.5-11.43-11.26c-3.89,4.05-8.18,8.52-12.53,13.05
	c-3.79-3.91-7.14-7.35-10.89-11.23c4.36-4.01,8.92-8.21,13.43-12.36c-4.13-3.93-7.71-7.33-11.62-11.04
	c-3.75,4.04-8.03,8.65-12.18,13.12c-4.04-4.12-7.34-7.49-11.02-11.25c4.23-3.92,8.84-8.2,13.12-12.17
	c-6.81-6.87-12.92-13.03-18.83-18.99c-12.82,12.84-25.84,25.88-38.9,38.97c31.81,31.82,63.95,63.96,96.11,96.12
	c-4.42,4.24-8.33,8.01-12.4,11.91c-0.67-0.63-1.59-1.44-2.46-2.31c-32.64-32.64-65.27-65.27-97.9-97.92
	C-1.03,62-1.04,58.11,4.93,52.14c15.96-15.97,31.92-31.94,47.9-47.9c5.62-5.62,9.76-5.65,15.29-0.11c32.9,32.9,65.8,65.8,98.7,98.71
	C167.52,103.54,168.19,104.27,168.93,105.05z"/>
<path d="M269.13,205.28c0.56,0.54,1.48,1.37,2.35,2.24c34.59,34.59,69.17,69.17,103.76,103.76c4.96,4.96,5.04,9.35,0.18,14.22
	c-16.48,16.52-32.98,33.02-49.49,49.5c-4.7,4.69-9.12,4.84-13.67,0.3c-35.49-35.45-70.94-70.94-106.4-106.41
	c-0.17-0.17-0.29-0.4-0.33-0.45c3.91-3.8,7.8-7.58,11.71-11.38c33.37,33.38,67.21,67.23,100.69,100.72
	c13.58-13.58,26.66-26.67,39.51-39.53c-29.82-29.83-60.13-60.15-90.65-90.68c-6.2,6.33-12.7,12.96-19.1,19.5
	c-3.79-3.92-7.06-7.3-10.02-10.35C247.78,226.61,258.32,216.08,269.13,205.28z"/>
<path d="M331.59,311.94c-0.03,10.56-8.82,19.31-19.33,19.24c-10.58-0.07-19.2-8.79-19.17-19.39c0.04-10.6,8.74-19.25,19.32-19.2
	C323.01,292.64,331.62,301.33,331.59,311.94z M301.42,311.71c-0.06,6.16,4.56,10.97,10.66,11.1c6.13,0.14,11.3-4.91,11.26-10.99
	c-0.03-5.87-5.12-10.99-10.96-11.03C306.48,300.74,301.48,305.72,301.42,311.71z"/>
</svg>
