<?xml version="1.0" encoding="utf-8"?>
<!-- Generator: Adobe Illustrator 24.1.1, SVG Export Plug-In . SVG Version: 6.00 Build 0)  -->
<svg version="1.1" id="Layer_1" xmlns="http://www.w3.org/2000/svg" xmlns:xlink="http://www.w3.org/1999/xlink" x="0px" y="0px"
	 viewBox="0 0 128.52 128.5" style="enable-background:new 0 0 128.52 128.5;" xml:space="preserve">
<style type="text/css">
	.st0{fill:#FFFFFF;}
</style>
<path d="M128.52,64.21c0,35.52-28.98,64.47-64.36,64.29C28.65,128.32-0.01,99.61,0,64.21C0.01,28.43,28.75-0.02,64.88,0
	C99.93,0.02,128.52,28.86,128.52,64.21z M23.45,108.49c-0.01,0.14-0.02,0.28-0.03,0.42c0.89,0.22,1.89,0.26,2.65,0.71
	c1.11,0.65,2.13,1.5,3.03,2.42c0.66,0.68,0.88,1.91,1.61,2.4c13.56,9,28.39,12.11,44.4,9.26c32.16-5.74,54.1-36.58,48.93-68.7
	C118.57,20.95,86.6-1.63,52.97,4.8c-43.4,8.29-63.55,58.75-37.84,94.68c0.87,1.21,1.73,1.67,3.28,1.76
	c1.51,0.09,3.27,0.76,4.38,1.77c1.47,1.33,2.42,3.25,3.61,4.94C25.73,108.07,24.59,108.28,23.45,108.49z"/>
<path d="M72.66,78.52c0.56,0.84,1.05,1.75,1.7,2.52c1.06,1.26,2.4,2.43,0.04,4.01c1.69-0.21,3.37-0.42,5.06-0.62
	c1.65-0.19,3.3-0.37,5.61-0.63c-0.77,0.9-1.15,1.36-1.57,1.84c0.43,0.26,0.89,0.53,1.48,0.88c-0.33,0.14-0.52,0.26-0.72,0.29
	c-3.41,0.45-6.82,0.93-10.24,1.28c-0.72,0.07-1.54-0.22-2.23-0.52c-3.59-1.57-7.16-3.2-10.77-4.72c4.5,3.58,9.3,6.56,15.33,6.47
	c1.25-0.02,2.47-1.13,3.75-1.25c2.36-0.22,4.76-0.07,7.15-0.09c0.73-0.01,1.46-0.09,2.23-0.62c-1.39-0.55-2.79-1.1-4.18-1.65
	c0.01-0.23,0.03-0.46,0.04-0.69c1.6-0.24,3.2-0.62,4.8-0.69c2.46-0.11,4.93-0.14,7.38,0.06c0.84,0.07,2.12,0.82,2.28,1.48
	c0.19,0.81-0.52,1.88-0.96,2.78c-0.36,0.74-1.2,1.36-1.32,2.11c-1.29,8.26-6.92,11.44-14.42,12.51c1.04-3.94,1.98-4.74,5.94-5.19
	c1.1-0.13,2.19-0.41,3.65-0.69c-2.51-0.54-4.49-0.92-6.43-1.49c-0.12-0.03,0.18-1.5,0.29-2.36c-1.52-0.45-3.33-1.02-5.15-1.53
	c-0.35-0.1-0.83-0.13-1.13,0.04c-2.91,1.56-5.8,2.23-8.97-0.33c1.66,2.77,0.01,3.43-1.84,3.84c-3.72,0.82-7.44,1.69-11.2,2.29
	c-3.7,0.59-6.41-1.06-7.78-4.48c-0.3-0.74-0.3-1.6-0.5-2.73c1.4,0.37,2.37,0.63,3.76,1c-0.6-1.34-1.08-2.43-1.66-3.72
	c0.6-0.11,1.16-0.22,1.73-0.33c-0.36-1.3-0.73-2.61-1.1-3.92c0.2-0.14,0.39-0.28,0.59-0.43c2.02,1.65,4.03,3.29,6.3,5.14
	c-1.07,0.42-1.72,0.67-2.58,1.01c2.08,0.97,4.04,1.88,6,2.8c-0.05,0.19-0.11,0.39-0.16,0.58c-0.94,0.21-1.87,0.43-2.81,0.64
	c0,0.22,0.01,0.44,0.01,0.66c1.64,0,3.29,0,4.71,0c0-1.67,0-2.98,0-4.68c-1.35-0.65-3.33-1.37-5.03-2.51
	c-1.95-1.32-3.76-2.9-5.4-4.6c-0.91-0.94-1.83-2.2-0.8-3.81c0.26-0.4,0.02-1.29-0.24-1.83c-1.75-3.57-0.38-6.66,1.51-9.6
	c0.69-1.07,1.56-2.28,3.31-1.48c0.26,0.12,1.11-0.6,1.41-1.09c0.35-0.59,0.19-1.54,0.61-2.01c0.72-0.81,1.72-1.37,2.6-2.03
	c0.45,0.87,0.94,1.73,1.35,2.62c0.15,0.32,0.13,0.71,0.3,1.82c0.46-1.1,0.57-1.58,0.83-1.95c0.51-0.71,1.17-1.95,1.67-1.9
	c1.05,0.1,2.41,0.64,2.95,1.46c0.68,1.05,0.86,2.54,0.94,3.86c0.15,2.7-0.1,5.44,0.2,8.12c0.16,1.43,1.14,2.76,1.74,4.14
	L72.66,78.52z M58.88,78.51c2.55,2.98,5.47,5,8.08,5.12c-0.86-0.92-1.42-1.58-2.04-2.16c-1.37-1.28-3.12-2.3-2.5-4.69
	c0.12-0.44-0.31-1.04-0.51-1.55c-0.83-2.13-1.63-4.27-2.53-6.38c-0.2-0.47-0.75-0.8-1.14-1.19c-0.42,0.5-1.23,1.05-1.17,1.49
	c0.14,1.05,0.51,2.16,1.11,3.04c1,1.47,1.06,2.81,0.3,4.35c-0.78-0.87-1.46-1.62-2.13-2.36c-0.31,0.19-0.61,0.38-0.92,0.56
	c0.68,1.37,1.34,2.75,2.09,4.07C57.57,78.93,58.31,78.65,58.88,78.51z M65.14,73.46c-1.44,1.74-1.97,3.42-0.97,4.87
	c1.7,2.46,4,4.32,7.09,5.03C68.46,80.61,65.87,77.82,65.14,73.46z M64.76,64.97c-0.21,0-0.43,0-0.64,0c0,2.31,0,4.62,0,6.93
	c0.21,0,0.43,0,0.64,0C64.76,69.59,64.76,67.28,64.76,64.97z"/>
<path d="M26.36,73.22c-0.23,0.64-0.46,1.27-0.7,1.93c-2.7-1.39-3.8-3.85-2.56-6.07c0.45-0.8,1.45-1.5,2.34-1.73
	c0.47-0.12,1.22,0.88,1.79,1.32c2-2.11,4.15-4.38,6.27-6.62c-0.57-0.53-1.17-1.07-1.76-1.61c0.77-0.62,1.44-1.5,2.31-1.81
	c2.59-0.92,5.25-1.62,7.88-2.89c-2.42,0-4.84,0-7.42,0c2.22-4.5,13.47-5.44,19.2-3.37c-1.74,0.75-2.95,1.3-4.18,1.79
	c-1.3,0.51-2.63,0.96-3.95,1.44c0.09,0.26,0.17,0.51,0.26,0.77c2.38-0.74,4.89-1.23,7.12-2.29c2.19-1.05,4.11-2.68,6.36-4.2
	c0.9,2.46,0.66,4.07-0.76,5.72c-4.3,4.99-10,4.95-15.81,4.72c-1.8-0.07-3.61-0.01-5.42-0.01c-0.01,0.25-0.01,0.5-0.02,0.76
	c2.91,0,5.82,0,8.73,0c0.02,0.24,0.04,0.48,0.06,0.72c-0.69,0.31-1.37,0.63-2.06,0.92c-4.69,1.98-8.85,4.73-12.15,8.65
	c-4.03,4.78-3.28,12.45,1.37,16.59c1.01,0.9,1.51,2.43,2.06,3.75c0.09,0.22-0.92,1.28-1.12,1.19c-1.48-0.59-3.32-1.03-4.21-2.17
	c-2.48-3.18-3.01-7.13-3.18-11.07c-0.09-2.12-0.02-4.26-0.02-6.39C26.66,73.25,26.51,73.24,26.36,73.22z"/>
<path d="M44.82,92.59c0.63-4.11,0.11-7.67-3.21-10.75c0.12,0.71,0.16,1.06,0.25,1.4c0.53,2.11,1.16,4.2,1.58,6.33
	c0.21,1.08-0.24,2.34,0.13,3.32c0.81,2.16-0.2,3.29-2.11,4.31c0.78,1.1,1.5,2.11,2.34,3.28c-0.66,0.59-1.28,1.15-1.92,1.72
	c-1.29-0.82-2.44-1.55-3.59-2.28c-0.25,0.3-0.51,0.59-0.76,0.89c1.19,0.95,2.43,1.85,3.55,2.89c0.47,0.43,1.06,1.46,0.88,1.7
	c-0.39,0.54-1.2,0.96-1.89,1.07c-2.29,0.35-3.87-1.03-4.86-2.78c-0.96-1.7-1.15-3.62,0.63-5.17c0.32-0.28,0.61-0.8,0.61-1.2
	c-0.03-4.49,0.26-9.02-1.28-13.37c-0.16-0.44-0.32-0.99-0.19-1.4c1.1-3.36,2.2-6.73,3.51-10.01c0.21-0.53,1.5-0.62,2.3-0.92
	c-0.14,0.68-0.26,1.37-0.41,2.05c-0.35,1.55-0.71,3.1-1.06,4.66c0.34,0.07,0.68,0.13,1.03,0.2c0.09-0.72,0.08-1.47,0.28-2.16
	c0.22-0.73,0.64-1.41,0.97-2.11c0.71,0.52,1.58,0.91,2.09,1.58c1.06,1.39,1.92,2.92,2.87,4.4c0.28-0.18,0.56-0.35,0.84-0.53
	c-0.66-0.98-1.35-1.93-1.96-2.93c-1.09-1.8-2.47-4.06-0.78-5.68c1.58-1.51,4.07-2.24,6.28-2.84c1.46-0.39,1.44,1.02,1.21,2.12
	c-0.72,3.47-1.47,6.93-2.11,10.42c-0.17,0.9-0.16,1.91,0.07,2.79C51.2,87.74,49.49,90.95,44.82,92.59z"/>
<path d="M14.38,80.88c-2.62-2.5-2.62-2.5-3.09-7.29c-3.97-0.18-4.72-1.6-3.78-6.59c-0.67-0.84-1.55-1.44-1.52-2
	c0.16-3.32,0.48-6.64,0.9-9.94c0.06-0.48,0.99-0.85,2.02-1.66c-0.11-0.89-0.31-2.59-0.56-4.72c1.28,0.58,2.17,0.99,3.17,1.44
	c0-0.87,0-1.64,0-2.43c3.1,0.5,5.29,2.61,5.96,5.68c0.7,3.21-0.74,6.23-3.93,8.27c-2.06,1.32-2.06,1.32-1.95,3.85
	c0.59-1.04,1.02-1.8,1.5-2.64c2.35,1.37,3.61,3.47,4.05,5.93c0.41,2.25,1.46,3.51,3.66,4.14c2.71,0.78,4.43,3.7,4.62,6.53
	c0.22,3.26-0.57,5.98-3.08,8.12c-1.91,1.62-3.39,1.36-4.64-0.82c-0.83-1.44-2.13-2.81-0.96-4.7c0.14-0.22,0.08-0.68-0.06-0.93
	c-1.01-1.86-2.06-3.69-3.42-5.58C13.62,77.19,13.96,78.85,14.38,80.88z M7.51,64.38c3.31-1.92,4.22-4.34,2.99-7.57
	C9.53,59.28,8.6,61.62,7.51,64.38z M20.18,83.47c0.25,0.03,0.51,0.06,0.76,0.09c0.2-0.79,0.78-1.75,0.53-2.34
	c-0.81-1.85-1.93-3.56-3.15-5.71C19,78.43,19.59,80.95,20.18,83.47z"/>
<path d="M116.65,75.66c0-3.14,0-6.28,0-9.42c-0.3-0.07-0.61-0.15-0.91-0.22c0.52,2.79,0.63,5.4-2.02,6.64
	c-2.15-4.67-4.27-9.28-6.51-14.15c0.94-0.04,2.1-0.1,3.26-0.15c0.04-0.16,0.08-0.31,0.12-0.47c-0.72-0.12-1.43-0.31-2.15-0.34
	c-4.65-0.18-6.81-2.8-5.99-7.4c0.09-0.53,0.5-1.22,0.95-1.43c1.93-0.92,5.84,0.21,7.22,1.94c1.38,1.73,2.99,3.32,4.14,5.19
	c2.29,3.71,4.58,7.45,6.4,11.39C122.76,70.7,120.21,75,116.65,75.66z"/>
<path d="M90.27,72.78c4.02-3.36,8.02-6.74,12.07-10.05c0.66-0.54,1.98-1.28,2.29-1.03c0.68,0.54,1.32,1.68,1.25,2.52
	c-0.43,5.19-1.55,10.22-4.25,14.77c-1.87,3.16-4.49,4.84-8.32,4.27c-2.18-0.33-4.39-0.49-6.59-0.73c-0.04-0.27-0.08-0.54-0.12-0.8
	c1.03-0.26,2.05-0.58,3.1-0.78c2.48-0.49,5.06-0.64,7.42-1.45c2.6-0.9,3.95-3.44,3.82-5.78c-0.09-1.63-1-2.37-2.31-1.5
	c-1.92,1.28-3.61,2.92-5.37,4.44c-0.59,0.51-1,1.4-1.66,1.62c-4.08,1.35-8.12,1.27-12-0.77c-0.26-0.14-0.49-0.41-0.65-0.67
	c-0.11-0.17-0.07-0.44-0.14-1.03c4.06,0.26,7.99,0.08,11.04-2.99c0,0,0.21,0,0.21,0L90.27,72.78z"/>
<path d="M91.33,59.17c-1.86,1.48-4.27,3.54-6.83,5.4c-1.54,1.12-3.67,1.8-5.02,0.3c-0.79-0.88-0.94-3.23-0.33-4.34
	c2.47-4.48,6.02-7.79,11.48-8.24c0.53-0.04,1.33-0.05,1.58,0.27c1.43,1.86,2.88,3.74,3.99,5.79c0.31,0.58-0.48,1.76-0.77,2.67
	C94.26,60.49,93.1,59.97,91.33,59.17z"/>
<path d="M90.27,72.78c0,0-0.21,0.04-0.21,0.04s-0.21,0-0.21,0c-3.5,0.53-7,1.1-10.52,1.56c-2.42,0.32-4.2-0.86-5.33-2.88
	c-0.84-1.51-1.53-3.15-1.99-4.82c-0.66-2.37,0.68-4.82,3.01-5.48c0.49-0.14,1.61,0.65,1.88,1.26c0.57,1.29,0.62,2.79,1.14,4.11
	c1.43,3.61,4.02,4.97,7.62,3.5c3.35-1.36,6.45-3.32,10.32-5.37C93.87,67.68,92.07,70.23,90.27,72.78z"/>
<path d="M58.89,40.2c2.74,1.65,2.37,6.3-0.77,8.35c-1.47,0.96-3.34,1.53-5.09,1.75c-2.39,0.29-4.84,0.07-7.35-0.4
	c3.91-2.34,7.82-4.67,11.73-7.01c-0.13-0.28-0.27-0.56-0.4-0.85c-2.88,1.3-5.59,3.32-9.49,2.57c5.11-3.54,9.29-7.34,10.54-13.35
	C60.73,32.6,60.86,34.08,58.89,40.2z"/>
<path d="M109.33,75.28c0.57,0.93,1.15,1.86,1.81,2.94c0.82-0.56,1.64-1.11,2.47-1.68c1.34,3.36,0.33,8.1-2.08,10.55
	c-0.6,0.61-0.73,1.66-1.27,2.37c-0.82,1.07-1.66,2.56-2.76,2.84c-0.77,0.2-2.25-1.13-2.93-2.11c-1.39-1.99-1.11-4.22,0.52-5.92
	c2.4-2.5,4.05-5.2,3.62-8.91C108.92,75.33,109.13,75.3,109.33,75.28z"/>
<path d="M105.93,47.08c-1.38,0.15-2.76,0.3-4.52,0.48c0,2.38-0.1,4.91,0.06,7.41c0.05,0.73,0.73,1.55,1.35,2.07
	c1.35,1.13,1.3,1.94-0.13,2.98c-1.47,1.06-2.78,2.33-4.31,3.64c-1.43-2.64-1.35-5.52-1.1-8.4c0.24-2.77,0.62-5.53,0.87-8.3
	c0.29-3.16,1.51-3.95,4.4-2.62c1.21,0.55,2.3,1.34,3.45,2.02C105.98,46.61,105.95,46.84,105.93,47.08z"/>
<path d="M37.76,35.72c-2.39-2.18-4.64-4.23-6.89-6.28c-0.31,0.25-0.63,0.5-0.94,0.75c0.79,1.26,1.58,2.52,2.47,3.95
	c-1.15,0.68-2.5,1.47-4.05,2.38c-1.23-2.87-2.41-5.62-3.66-8.55c2.93-1.76,5.7-3.41,9.16-5.49c-1.21,3.64,0.71,5.48,2.49,7.49
	C37.73,31.55,38.4,33.52,37.76,35.72z"/>
<path d="M30.76,44.83c7.12-1.11,7.21-1.2,7.64-8.09c0.85,0.41,1.55,0.82,2.31,1.08c0.76,0.26,1.6,0.27,2.34,0.55
	c0.61,0.23,1.48,0.58,1.63,1.07c0.2,0.62,0.04,1.64-0.38,2.13c-2.41,2.83-4.89,5.6-7.49,8.25c-0.4,0.41-1.95,0.41-2.32,0.01
	C33.17,48.4,32.12,46.71,30.76,44.83z"/>
<path d="M34.96,23.69c2.68-4.86,9.11-5.55,12.54-1.53c1.71,2,1.07,6.61-1.21,8.75c-1.34,1.26-5.9,1.1-7.4-0.32
	c-0.36-0.34-0.5-0.9-0.76-1.4c1.56-0.36,2.98-0.53,4.28-1.01c1.64-0.61,3.14-1.62,2.51-3.71c-0.61-2-2.32-2.59-4.21-2.27
	c-1.31,0.22-2.54,0.88-3.83,1.27C36.31,23.62,35.68,23.6,34.96,23.69z"/>
<path d="M103.71,39.56c0.86-0.68,1.71-1.37,2.77-2.22c-0.78-0.96-1.49-1.83-2.28-2.8c-0.77,1.74-1.41,3.19-2.05,4.64
	c-0.2-0.07-0.41-0.14-0.61-0.21c0.1-0.79,0.19-1.59,0.32-2.64c-1.17,0.33-2.18,0.61-3.6,1.01c1.56-2.35,4.67-3.54,3.48-6.92
	c-0.83-0.17-1.8-0.38-2.77-0.59c-0.06-0.27-0.12-0.53-0.19-0.8c2.17-0.08,4.23-0.33,4.68-3.02c0.37,1.81,0.81,3.31,3.3,3.11
	c-0.16,0.24-0.32,0.48-0.48,0.72c-0.7,0.17-1.4,0.35-2.35,0.58c-0.04,0.92-0.09,1.92-0.14,2.97c1.08,0,1.98,0,2.94,0
	c0.18-1.16,0.34-2.19,0.5-3.21c0.22,0,0.44-0.01,0.66-0.01c0.16,1.01,0.31,2.01,0.5,3.22c1.16,0.3,2.39,0.63,4.18,1.1
	c-3.38,1.42-4.19,3.29-2.27,6.11c-0.9-0.67-1.8-1.34-2.58-1.92c-1.34,0.61-2.53,1.14-3.72,1.68
	C103.92,40.09,103.81,39.82,103.71,39.56z"/>
<path d="M44.41,67.39c1.48-1.4,2.7-2.96,4.27-3.97c3.27-2.11,6.71-3.94,10.09-5.87c1.41-0.8,2.16-0.39,1.98,1.26
	c-0.07,0.69-0.19,1.56-0.64,1.99C56.25,64.59,52,67.74,46.28,68c-0.32,0.01-0.64,0-0.95-0.04C45.19,67.94,45.07,67.81,44.41,67.39z"
	/>
<path d="M44.55,64.87c-0.84,1.05-1.31,1.81-1.95,2.37c-1.37,1.21-3.1,2.1-4.19,3.5c-1.26,1.62-2.1,3.6-2.92,5.5
	c-0.53,1.22-0.59,2.63-1.08,3.88c-0.21,0.55-1,1.3-1.42,1.23c-0.52-0.08-1.19-0.85-1.31-1.42c-0.23-1.06-0.34-2.25-0.07-3.28
	c1.54-5.98,5.86-9.42,11.19-11.85C43.11,64.67,43.54,64.83,44.55,64.87z"/>
<path d="M96.28,99.88c-3.87,7.04-10.74,7.63-16.89,9.58c-0.23-0.27-0.46-0.53-0.69-0.8c1.37-1.36,2.51-3.16,4.15-3.98
	c3.46-1.73,7.16-2.96,10.79-4.34C94.39,100.07,95.24,100.06,96.28,99.88z"/>
<path d="M72.74,78.61c-0.44-2.27-0.87-4.54-1.34-6.96c4.59,3.9,8.81,7.5,12.98,11.05c-1.92,0.17-4.25,0.44-6.59,0.53
	c-0.47,0.02-1.02-0.62-1.45-1.04c-1.25-1.2-2.46-2.44-3.68-3.67C72.66,78.52,72.74,78.61,72.74,78.61z"/>
<path d="M50.5,25.59c2.97,3.55,2.39,5.31-2.64,7.42c0.64,0.23,1.13,0.41,1.62,0.59c-2.31,4.49-7.53,3.83-9.41,0.02
	c2.24-0.5,4.98-0.39,6.63-1.68C48.47,30.55,49.22,27.86,50.5,25.59z"/>
<path d="M75.83,121.24c-0.86-3.29-0.17-5.14,2.51-5.84c2.8-0.74,5.71-1.03,9.24-1.64C84.42,118.27,80.39,120.01,75.83,121.24z"/>
<path d="M83.83,69.15c0.7-3.88,4.6-7.94,7.84-7.95c0.8,0,1.6,0.65,2.4,1c-0.46,0.71-0.83,1.51-1.41,2.12
	c-1.04,1.08-2.24,2.01-3.31,3.06C87.61,69.08,86.17,69.57,83.83,69.15z"/>
<path d="M54.93,30.68c1.88,4.91,0.89,6.41-5.18,8.27c0.59,0.44,1.07,0.8,1.55,1.16c-1.67,2.59-3.07,3.3-6.21,2.92
	C48.43,38.86,51.58,34.89,54.93,30.68z"/>
<path d="M54.12,26.83c-1.31-1.67-2.73-3.47-4.14-5.27c0.07-0.17,0.13-0.35,0.2-0.52c1.47,0.47,2.91,1.06,4.4,1.38
	c1.61,0.35,3.26,0.45,4.93,0.67c1.19,4.05-0.34,6.2-4.54,6.03c0.19-0.38,0.38-0.69,0.5-1.02c0.28-0.79,0.53-1.59,0.79-2.39
	C55.57,26.07,54.88,26.44,54.12,26.83z"/>
<path d="M66.27,123.38c-0.4-7.3,3.42-10.65,10.09-9.94c-1.86,1.54-3.67,3.08-5.53,4.57C69.02,119.45,69.19,122.66,66.27,123.38z"/>
<path d="M89,44.69c3.45,0.47,5.09,1.89,4.75,4.38c-0.09,0.68-0.91,1.66-1.56,1.8c-1.59,0.36-3.28,0.31-5.3,0.45
	c0.5-2.15,0.92-3.99,1.34-5.82C88.49,45.24,88.75,44.96,89,44.69z"/>
<path d="M84.62,21.42c-1.42,3.44-3.06,4.65-5.25,3.75c-0.6-0.25-1.17-1.3-1.2-2.01c-0.04-0.8,0.48-1.66,0.88-2.43
	c1.32-2.51,2.07-2.58,4-0.54C83.48,20.64,84.04,20.97,84.62,21.42z"/>
<path d="M89,44.69c-0.25,0.27-0.51,0.54-0.76,0.81c-0.79-0.2-1.69-0.21-2.33-0.63c-1.1-0.72-2.05-1.69-3.05-2.55
	c2.1-2.96,4.52-2.97,7.58,0.02C89.97,43.11,89.48,43.9,89,44.69z"/>
<path d="M89.14,107.74c-1.03,5.09-3.67,6.19-9.92,4.07C82.6,110.43,85.76,109.13,89.14,107.74z"/>
<path d="M38.18,108.25c0.59,2.28,0.61,4.42-1.26,5.81c-1.75,1.3-3.62,0.42-5.49-0.6C33.68,111.73,35.82,110.07,38.18,108.25z"/>
<path d="M80.55,41.06c-1.41-1.41-2.41-2.41-3.41-3.41c0.98-0.68,1.9-1.81,2.94-1.92c1.42-0.15,3.4,0.23,3.26,2.21
	C83.27,38.87,81.8,39.72,80.55,41.06z"/>
<path d="M78.84,34.59c-1.12,0.82-2.17,2.07-3.4,2.29c-0.76,0.14-2.48-1.2-2.59-2.02c-0.24-1.83,1.36-2.64,3-2.55
	c0.98,0.05,1.92,0.77,2.88,1.18C78.77,33.86,78.81,34.23,78.84,34.59z"/>
<path d="M37.24,40.53c-0.01,2.7-1.47,3.08-7.18,2.37C30.65,40.38,31.58,39.74,37.24,40.53z"/>
<path d="M71.62,18.61c-0.26,2.1-0.56,3.63-2.47,3.5c-0.69-0.05-1.94-1.22-1.87-1.38c0.62-1.34,1.49-2.56,2.28-3.81
	C70.33,17.55,71.1,18.18,71.62,18.61z"/>
<path d="M70.9,27.78c1.04,1.19,2.24,2.34,2.13,2.49c-0.74,0.97-1.65,2.01-2.74,2.4c-0.45,0.16-1.46-1.2-2.21-1.87
	C68.89,29.93,69.71,29.06,70.9,27.78z"/>
<path d="M68.44,22.27c1.06,1.51,2.23,2.47,2.19,3.36c-0.03,0.74-1.45,1.93-2.34,2.01c-1.53,0.13-2.11-1.31-1.84-2.64
	C66.6,24.22,67.44,23.58,68.44,22.27z"/>
<path d="M74.81,12.48c0.03,2.24-0.14,4.13-2.37,4.62c-0.51,0.11-1.91-1.19-1.88-1.78C70.71,12.9,72.72,12.77,74.81,12.48z"/>
<path d="M79.71,10.28c0.16,0.17,0.74,0.52,0.84,0.97c0.26,1.25-2.06,3.38-3.73,3.37c-0.41,0-1.12-0.58-1.18-0.97
	C75.4,12.09,77.32,10.37,79.71,10.28z"/>
<path d="M44.52,25.52c-0.84,0.49-1.74,1.46-2.5,1.36c-0.8-0.11-1.47-1.23-2.19-1.91c0.75-0.66,1.45-1.76,2.26-1.84
	c0.76-0.07,1.63,0.93,2.45,1.45C44.53,24.9,44.53,25.21,44.52,25.52z"/>
<path d="M84.37,9.18c1,1.25,1.96,1.98,2.14,2.86c0.11,0.55-0.98,1.33-1.53,2.01c-0.92-0.85-1.84-1.71-2.76-2.56
	C82.76,10.91,83.31,10.32,84.37,9.18z"/>
<path d="M32.3,109.99c-0.95-0.35-2.26-0.43-2.75-1.1c-0.71-0.99-0.86-2.4-1.13-3.65c-0.03-0.13,0.74-0.62,1.1-0.59
	c0.36,0.03,0.78,0.46,0.98,0.83c0.69,1.21,1.29,2.47,1.93,3.71C32.39,109.45,32.35,109.72,32.3,109.99z"/>
<path d="M94.42,18.19c-0.32-0.01-0.71,0.1-0.94-0.05c-0.82-0.51-1.61-1.07-2.3-1.73c-0.06-0.06,0.6-1.31,1-1.36
	c1.03-0.12,2.44-0.27,3.1,0.3c1.56,1.32-0.03,2.11-0.94,2.91L94.42,18.19z"/>
<path d="M92.3,13.19c-1.2,1.59-2.44,2.57-3.99,0.97c-0.39-0.41-0.37-1.96,0.01-2.23C89.95,10.76,91.25,11.49,92.3,13.19z"/>
<path d="M94.34,18.26c0.47,0.07,1.17-0.02,1.36,0.25c0.55,0.78,0.89,1.71,1.32,2.58c-1.03,0.25-2.21,0.93-3.06,0.64
	c-1.22-0.42-1.26-1.67-0.38-2.73c0.24-0.29,0.55-0.53,0.83-0.79C94.42,18.19,94.34,18.26,94.34,18.26z"/>
<path d="M92.7,31.49c-0.97-1.12-2.05-2.09-1.92-2.27c0.58-0.89,1.41-1.68,2.33-2.21c0.18-0.1,1.66,1.19,1.59,1.72
	C94.59,29.54,93.67,30.25,92.7,31.49z"/>
<path d="M97.78,24.64c-1.35,0.83-2.31,1.83-2.78,1.63c-0.78-0.32-1.33-1.37-1.74-2.22c-0.07-0.15,1.09-1.31,1.51-1.21
	C95.64,23.04,96.4,23.76,97.78,24.64z"/>
<path d="M82.39,29.59c-2.03,0.59-2.91-0.57-3.28-2.29c-0.06-0.3,0.58-1.09,0.84-1.07c1.88,0.2,2.71,1.33,2.49,3.22
	C82.43,29.45,82.39,29.59,82.39,29.59z"/>
<path d="M39.9,27.6c-1.8-0.25-3.13-0.35-4.4-0.66c-0.39-0.09-0.64-0.72-0.96-1.11c0.35-0.28,0.66-0.73,1.05-0.81
	C37.39,24.65,38.82,25.13,39.9,27.6z"/>
<path d="M82.39,29.59c0,0,0.04-0.14,0.04-0.14c0.64-0.3,1.28-0.61,2.36-1.13c0.38,1.21,0.72,2.3,1.1,3.54
	C83.49,32.46,82.32,31.89,82.39,29.59z"/>
<path d="M73.71,117.88c-0.21,1.37-0.42,2.74-0.71,4.67c-0.9-0.88-2.13-1.73-2.01-2.04c0.45-1.11,1.34-2.05,2.07-3.05
	C73.27,117.61,73.49,117.74,73.71,117.88z"/>
<path d="M88.57,28.97c0.71,1.15,1.41,1.8,1.38,2.4c-0.03,0.51-1,1.42-1.41,1.35c-0.66-0.12-1.59-0.85-1.66-1.43
	C86.81,30.76,87.7,30.1,88.57,28.97z"/>
<path class="st0" d="M64.76,64.97c0,2.31,0,4.62,0,6.93c-0.21,0-0.43,0-0.64,0c0-2.31,0-4.62,0-6.93
	C64.33,64.97,64.54,64.97,64.76,64.97z"/>
<path class="st0" d="M7.51,64.38c1.09-2.76,2.02-5.11,2.99-7.57C11.72,60.05,10.82,62.46,7.51,64.38z"/>
<path class="st0" d="M20.18,83.47c-0.59-2.52-1.18-5.04-1.86-7.95c1.22,2.15,2.34,3.86,3.15,5.71c0.26,0.59-0.33,1.55-0.53,2.34
	C20.69,83.54,20.44,83.51,20.18,83.47z"/>
</svg>
