<?xml version="1.0" encoding="utf-8"?>
<!-- Generator: Adobe Illustrator 24.1.1, SVG Export Plug-In . SVG Version: 6.00 Build 0)  -->
<svg version="1.1" id="Layer_1" xmlns="http://www.w3.org/2000/svg" xmlns:xlink="http://www.w3.org/1999/xlink" x="0px" y="0px"
	 viewBox="0 0 222.06 222.06" style="enable-background:new 0 0 222.06 222.06;" xml:space="preserve">
<path d="M192.26,1.79c0,4.24,0,8.21,0,12.17c0,4.16,0,8.32,0,12.48c0,25.62,0,51.23,0,76.85c0,20.53-0.01,41.06,0.02,61.59
	c0,1.33-0.26,1.84-1.42,2.12c-3.56,0.87-7.09,1.89-10.61,2.97c-2.43,0.75-4.84,1.64-7.22,2.59c-3.23,1.28-6.47,2.56-9.63,4.06
	c-3.45,1.63-6.88,3.36-10.21,5.33c-3.25,1.92-6.4,4.11-9.51,6.33c-2.6,1.85-5.16,3.82-7.63,5.92c-1.73,1.48-3.31,3.22-4.92,4.91
	c-1.65,1.74-3.36,3.44-4.85,5.37c-1.9,2.45-3.73,5-5.38,7.7c-1.65,2.7-3.04,5.62-4.56,8.44c-0.24,0.45-0.59,0.82-1.04,1.44
	c0-1.12,0-2.09,0-3.06c-0.1-26.62-0.19-53.23-0.31-79.85c-0.03-7.22-0.23-14.44-0.27-21.65c-0.04-7.46-0.06-14.91,0.03-22.37
	c0.1-8.32,0.22-16.64,0.57-24.95c0.09-2.01,0.98-4.05,1.76-5.92c0.86-2.07,1.97-4,3.08-5.9c1.24-2.11,2.54-4.19,3.93-6.16
	c1.62-2.29,3.32-4.5,5.07-6.64c1.27-1.55,2.66-2.96,4.04-4.38c2.09-2.14,4.17-4.29,6.34-6.3c1.87-1.73,3.84-3.31,5.8-4.9
	c2.02-1.64,4.06-3.28,6.14-4.81c2.13-1.57,4.31-3.02,6.48-4.49c2.41-1.64,4.8-3.29,7.24-4.86c1.69-1.08,3.45-2.03,5.18-3.03
	c2.25-1.3,4.5-2.59,6.75-3.87c0.88-0.5,1.78-0.97,2.69-1.39c3.36-1.57,6.73-3.12,10.09-4.69c0.36-0.17,0.68-0.47,1.04-0.63
	C191.32,2.03,191.71,1.96,192.26,1.79z"/>
<path d="M107.09,222.03c-0.44-1.08-0.84-2.19-1.33-3.23c-1.32-2.76-2.46-5.7-4.07-8.19c-2.18-3.37-4.65-6.47-7.14-9.52
	c-1.95-2.39-4.06-4.6-6.2-6.75c-1.62-1.63-3.39-3.05-5.1-4.53c-1.8-1.56-3.59-3.11-5.42-4.61c-0.83-0.68-1.74-1.25-2.62-1.85
	c-2.45-1.65-4.88-3.36-7.38-4.92c-2.05-1.28-4.15-2.46-6.27-3.55c-3.24-1.67-6.48-3.35-9.78-4.8c-2.22-0.98-4.55-1.61-6.85-2.33
	c-2.82-0.88-5.66-1.69-8.59-2.56c0-54.89,0-109.88,0-165.19c1.24,0.38,2.36,0.73,3.49,1.08c0.23,0.07,0.44,0.18,0.66,0.28
	c2.81,1.32,5.63,2.6,8.41,4c1.9,0.96,3.79,2,5.61,3.18c3.11,2.03,6.16,4.18,9.23,6.3c1.38,0.95,2.78,1.87,4.11,2.92
	c2.73,2.14,5.43,4.33,8.1,6.56c2.32,1.94,4.66,3.86,6.88,5.96c2.72,2.56,5.43,5.17,7.95,7.99c3.32,3.72,6.62,7.49,9.6,11.59
	c2.42,3.32,4.56,7.03,5.83,11.24c0.6,1.98,1.06,4.12,1.13,6.21c0.15,4.64,0.03,9.29-0.03,13.93c-0.1,8.18-0.32,16.35-0.33,24.53
	c-0.03,20.45,0.03,40.89,0.05,61.34c0.01,8.09-0.01,16.19,0.04,24.28c0.06,9.84,0.18,19.68,0.28,29.53c0,0.36-0.02,0.72-0.04,1.08
	C107.24,222.01,107.16,222.02,107.09,222.03z"/>
<path d="M222.06,29.98c0,57.17,0,114.37,0,171.69c-0.67,0-1.29,0.01-1.92,0c-2.91-0.06-5.82-0.11-8.73-0.21
	c-2.35-0.08-4.7-0.41-7.04-0.3c-7.81,0.36-15.63,0.79-23.43,1.37c-3.29,0.24-6.57,0.81-9.82,1.43c-3.75,0.72-7.48,1.58-11.2,2.53
	c-2.93,0.75-5.83,1.67-8.72,2.62c-2.62,0.86-5.22,1.83-7.83,2.79c-3.6,1.32-7.18,2.68-10.77,4.03c-1.12,0.42-2.22,0.87-3.34,1.31
	c-0.05-0.12-0.1-0.24-0.15-0.36c0.82-0.82,1.59-1.73,2.47-2.44c2.97-2.39,5.92-4.82,8.98-7.03c2.5-1.81,5.1-3.41,7.72-4.95
	c2-1.18,4.08-2.17,6.16-3.14c2.75-1.29,5.53-2.5,8.3-3.7c1.1-0.48,2.23-0.92,3.36-1.27c2.52-0.78,5.05-1.54,7.6-2.21
	c3.62-0.94,7.25-1.86,10.89-2.66c2.62-0.57,5.25-1.07,7.9-1.36c5.43-0.59,10.88-1.02,16.32-1.55c0.65-0.06,1.29-0.37,2.04-0.59
	c0-0.68,0-1.34,0-2c0-18.39,0.01-36.78,0.01-55.17c0-32.26-0.01-64.51,0-96.77c0-2.01-0.36-2.05,1.65-2.07
	C215.66,29.96,218.8,29.98,222.06,29.98z"/>
<path d="M11.2,185.97c3.35,0.42,6.51,0.74,9.66,1.23c3.23,0.5,6.45,1.11,9.66,1.77c1.71,0.35,3.41,0.85,5.09,1.38
	c4.21,1.33,8.44,2.63,12.61,4.12c3.24,1.15,6.44,2.47,9.6,3.89c3.23,1.45,6.39,3.12,9.58,4.7c2.06,1.03,4.16,1.98,6.17,3.13
	c2.75,1.56,5.44,3.27,8.14,4.94c2.24,1.39,4.46,2.83,6.69,4.24c-0.05,0.15-0.1,0.3-0.16,0.45c-1.88-0.67-3.76-1.33-5.64-2.01
	c-0.71-0.26-1.4-0.61-2.11-0.85c-3.31-1.11-6.61-2.23-9.93-3.28c-2.94-0.93-5.88-1.85-8.85-2.65c-3.51-0.94-7.04-1.8-10.59-2.57
	c-2.73-0.59-5.48-1.09-8.24-1.47c-4.18-0.57-8.38-0.95-12.56-1.51c-8.24-1.12-16.49-0.71-24.74-0.38c-1.84,0.07-3.68,0.47-5.6,0.74
	C0,144.37,0,87.17,0,29.93c3.7,0,7.39,0,11.2,0C11.2,81.99,11.2,133.86,11.2,185.97z"/>
<path d="M29.95,15.73c0,0.82,0,1.43,0,2.04c0,28.97,0,57.95,0,86.92c0,21.73,0.02,43.47-0.03,65.2c0,1.6,0.38,2.06,1.69,2.26
	c3.03,0.46,6.06,1,9.02,1.89c3.82,1.15,7.59,2.54,11.32,4.06c2.65,1.08,5.24,2.43,7.78,3.86c2.56,1.44,5.04,3.12,7.54,4.71
	c1.72,1.09,3.47,2.14,5.14,3.33c1.53,1.09,3,2.33,4.47,3.54c1.85,1.52,3.72,3.03,5.51,4.65c1.59,1.44,3.13,2.98,4.6,4.58
	c1.94,2.11,3.79,4.34,5.67,6.52c-0.05,0.11-0.1,0.22-0.14,0.33c-0.61-0.39-1.24-0.75-1.84-1.16c-1-0.7-1.96-1.49-2.99-2.13
	c-3.5-2.19-6.99-4.4-10.54-6.48c-2.01-1.18-4.1-2.14-6.17-3.18c-2.44-1.23-4.89-2.46-7.34-3.66c-1.05-0.52-2.12-0.99-3.19-1.43
	c-1.56-0.64-3.14-1.26-4.72-1.85c-3.9-1.45-7.8-2.93-11.73-4.27c-3.04-1.03-6.1-1.99-9.19-2.76c-4.11-1.02-8.25-1.83-12.37-2.72
	c-1.59-0.34-3.19-0.65-4.9-1c0-54.89,0-109.88,0-165.3C21.64,14.34,25.7,15.02,29.95,15.73z"/>
<path d="M204.73,14.38c0,54.91,0,109.72,0,164.54c-0.11,0.07-0.21,0.18-0.31,0.19c-4.44,0.5-8.89,0.92-13.32,1.49
	c-2.96,0.38-5.9,0.93-8.84,1.49c-1.91,0.36-3.81,0.82-5.7,1.33c-3.12,0.85-6.25,1.71-9.35,2.69c-2.55,0.81-5.09,1.69-7.56,2.75
	c-3.42,1.48-6.78,3.17-10.18,4.76c-0.68,0.32-1.39,0.56-2.09,0.83c-0.04-0.11-0.07-0.22-0.11-0.33c2.41-1.5,4.78-3.09,7.24-4.49
	c3.7-2.11,7.41-4.21,11.2-6.08c2.64-1.3,5.4-2.28,8.13-3.29c3.01-1.11,6.05-2.13,9.09-3.12c2.54-0.83,5.09-1.62,7.65-2.33
	c2.28-0.63,4.59-1.1,6.87-1.73c0.35-0.1,0.66-0.68,0.85-1.12c0.13-0.3,0.03-0.75,0.03-1.13c0-18.53,0-37.06,0-55.59
	c0-32.65,0.01-65.29-0.02-97.94c0-1.33,0.31-1.84,1.42-1.97C201.38,15.14,203,14.73,204.73,14.38z"/>
</svg>
