<?xml version="1.0" encoding="utf-8"?>
<!-- Svg Vector Icons : http://www.onlinewebfonts.com/icon -->
<!DOCTYPE svg PUBLIC "-//W3C//DTD SVG 1.1//EN" "http://www.w3.org/Graphics/SVG/1.1/DTD/svg11.dtd">
<svg version="1.1" xmlns="http://www.w3.org/2000/svg" xmlns:xlink="http://www.w3.org/1999/xlink" x="0px" y="0px" viewBox="0 0 1000 1000" enable-background="new 0 0 1000 1000" xml:space="preserve">
<metadata> Svg Vector Icons : http://www.onlinewebfonts.com/icon </metadata>
<g><g transform="translate(0.000000,511.000000) scale(0.100000,-0.100000)"><path d="M1119.5,4828.1c-122.8-26.3-188.5-168.8-135.9-293.8c35.1-85.5,74.6-105.2,337.6-171c282.8-70.2,802.4-256.5,1124.7-403.4c741-337.6,1405.3-828.7,1800-1330.8c76.7-96.5,149.1-192.9,160-210.5c24.1-43.8,8.8-35.1-258.7,166.6C3362.3,3175,2356,3591.5,1292.7,3771.3c-355.2,59.2-605.1,76.7-662.1,46c-70.2-37.3-120.6-149.1-105.2-232.4c26.3-131.5,85.5-162.2,390.3-197.3c877-103,1797.8-410,2527.8-846.3c219.2-129.4,359.6-230.2,293.8-210.5c-19.7,6.6-188.5,61.4-377.1,122.8c-600.7,195.1-1177.3,320.1-1769.3,385.9c-317.9,35.1-1023.9,41.7-1181.7,13.2C218.4,2815.4,100,2672.9,100,2480c0-68,107.4-1354.9,241.2-2858.9c265.3-3012.4,243.4-2852.3,405.6-2953.2c65.8-41.7,129.3-52.6,368.3-67.9c879.2-59.2,1683.8-234.6,2448.9-535c282.8-111.8,745.4-333.2,931.8-449.4c403.4-249.9,385.9-241.2,506.4-241.2c98.6,0,133.7,13.1,282.8,111.8c969,631.4,2229.7,1026.1,3564.8,1113.8c188.6,13.1,322.3,32.9,361.7,52.6c81.1,41.7,153.5,120.6,182,197.3c24.1,61.4,506.4,5441.5,506.4,5636.6c0,177.6-111.8,315.7-291.6,366.1c-135.9,37.3-870.4,30.7-1221.2-11c-583.2-70.2-1210.2-208.3-1795.6-396.8c-173.2-57-331-107.4-350.8-114c-68-21.9,339.8,239,556.9,355.2c677.5,361.7,1506.2,616.1,2334.9,714.7c247.7,28.5,278.4,43.8,320.1,144.7c39.5,92.1,11,206.1-63.6,258.7c-138.1,96.5-1010.7-50.4-1747.3-296c-681.8-223.6-1306.7-545.9-1826.3-940.5c-260.9-197.3-267.5-186.4-46.1,87.7c602.9,743.2,1672.8,1379,2869.9,1701.3c333.2,89.9,394.6,131.5,394.6,271.9c0,74.5-13.1,100.8-72.3,153.5c-39.5,35.1-89.9,63.6-111.8,63.6c-70.1,0-521.8-122.8-791.4-214.8C6705.7,4168.1,5659.9,3392,5109.6,2440.5c-57-100.8-107.4-182-111.8-182c-4.4,0-48.2,72.3-98.7,160c-230.2,394.6-640.2,866-1017.3,1170.8C3263.6,4087,2463.4,4486,1593,4733.8C1259.8,4828.1,1183,4843.4,1119.5,4828.1z M1393.5,2102.9c934-85.5,1999.5-390.2,2961.9-846.3l260.9-122.8v-2352.4c0-1295.7-4.4-2354.6-6.6-2354.6c-4.4,0-140.3,63.6-302.6,140.3c-804.6,383.7-1764.9,648.9-2701,743.2c-153.5,17.5-285,37.3-293.8,43.9c-6.6,8.8-105.2,1039.2-217,2291C983.5,894.9,887.1,1964.8,880.5,2024l-11,103h135.9C1080,2127,1255.4,2116.1,1393.5,2102.9z M9115.1,2045.9c-116.2-1341.7-418.8-4682.9-425.3-4687.3c-4.4-6.6-151.3-26.3-326.7-43.8c-955.9-105.2-1892.1-368.3-2731.7-767.3L5383.7-3571v2356.8v2356.8l256.5,120.6c1085.2,510.8,2372.2,848.4,3284.2,861.6l199.5,2.2L9115.1,2045.9z"/></g></g>
</svg>